<?xml version="1.0" encoding="utf-8"?>
<!-- Generator: Adobe Illustrator 20.1.0, SVG Export Plug-In . SVG Version: 6.00 Build 0)  -->
<svg version="1.1" id="Layer_1" xmlns="http://www.w3.org/2000/svg" xmlns:xlink="http://www.w3.org/1999/xlink" x="0px" y="0px"
	 viewBox="0 0 1089.4 346.3" style="enable-background:new 0 0 1089.4 346.3;" xml:space="preserve">
<style type="text/css">
	.st0{fill:#A3BF2A;}
	.st1{fill:#FFFFFF;}
	.st2{enable-background:new    ;}
	.st3{fill:#70B9D3;}
	.st4{fill:#E0BDAF;stroke:#000000;stroke-width:1.7293;stroke-linecap:round;stroke-linejoin:round;stroke-miterlimit:10;}
	.st5{fill:#E0BDAF;stroke:#000000;stroke-width:1.3242;stroke-linecap:round;stroke-linejoin:round;stroke-miterlimit:10;}
	.st6{fill:#E0BDAF;stroke:#000000;stroke-width:1.5464;stroke-linecap:round;stroke-linejoin:round;stroke-miterlimit:10;}
	.st7{fill:#FFFFFF;stroke:#000000;stroke-width:1.7293;stroke-linecap:round;stroke-linejoin:round;stroke-miterlimit:10;}
	.st8{stroke:#000000;stroke-width:1.6937;stroke-miterlimit:10;}
	.st9{fill:#EDEEEE;}
	.st10{stroke:#000000;stroke-width:0.4747;stroke-miterlimit:10;}
	.st11{fill:#ACADB0;stroke:#000000;stroke-width:0.692;stroke-miterlimit:10;}
	.st12{clip-path:url(#SVGID_3_);}
	.st13{clip-path:url(#SVGID_5_);fill:#A3BF2A;}
	.st14{clip-path:url(#SVGID_7_);}
	.st15{clip-path:url(#SVGID_9_);}
	.st16{fill:#E2CC84;stroke:#000000;stroke-width:1.7293;stroke-linecap:round;stroke-linejoin:round;stroke-miterlimit:10;}
	.st17{fill:#60A297;stroke:#000000;stroke-width:1.2943;stroke-miterlimit:10;}
	.st18{fill:#E0BDAF;}
	.st19{fill:#70B9D3;stroke:#000000;stroke-width:1.7293;stroke-linecap:round;stroke-linejoin:round;stroke-miterlimit:10;}
</style>
<ellipse transform="matrix(0.9998 -1.791404e-02 1.791404e-02 0.9998 -2.2643 7.8114)" class="st0" cx="434.9" cy="130.3" rx="653.5" ry="213.4"/>
<ellipse class="st1" cx="431.9" cy="114.3" rx="653.5" ry="213.4"/>
<g>
	<g class="st2">
		<path class="st0" d="M312.5,77h11.8l27.6,112.3h0.3L379.9,77h11.8l-32.7,124.1h-13.9L312.5,77z"/>
		<path class="st0" d="M410,77h61.5v9.4h-50.4v45.2h47.1v9.4h-47.1v50.8h52v9.4H410V77z"/>
		<path class="st0" d="M495.2,77h15l47.5,108.1h0.3V77h11.1v124.1h-15L506.6,93h-0.3v108.1h-11.1V77z"/>
		<path class="st0" d="M623.3,77h13.9l36.7,124.1h-11.8L652,165h-43.5l-10.1,36.2h-11.8L623.3,77z M649.5,155.6l-19.1-69.9h-0.3
			L611,155.6H649.5z"/>
		<path class="st0" d="M718.2,77h13.9l36.7,124.1H757L746.9,165h-43.5l-10.1,36.2h-11.8L718.2,77z M744.5,155.6l-19.1-69.9H725
			l-19.1,69.9H744.5z"/>
		<path class="st0" d="M786.4,77h37c20.7,0,32.2,11.8,32.2,31.1c0,15-5.9,28.3-22.4,31.5v0.3c15.5,1.4,20.7,10.3,21.2,29.4l0.3,13.6
			c0.2,6.8,0.9,13.4,5.2,18.3h-13c-2.6-4.3-3.1-10.8-3.3-17.4l-0.3-10.4c-0.7-21.9-4.7-28.9-24.7-28.9h-21v56.7h-11.1V77z
			 M797.5,135.1h19.1c17.6,0,27.8-8,27.8-24.3c0-15.1-6.4-24.3-26.6-24.3h-20.3V135.1z"/>
	</g>
	
		<ellipse transform="matrix(6.494243e-02 -0.9979 0.9979 6.494243e-02 -23.1047 245.4841)" class="st3" cx="119.4" cy="135.1" rx="118" ry="118"/>
	<path class="st4" d="M232.4,103.6c-3.8,0.5-1.2,3.1-9,11.1c-7.5,7.8-4.5,12.5-9.8,17.5c-9.6,6.2-30.5,13.8-40.5,18.3
		c-21,9.4-24.6,42.5,6.2,28.5c22.7-10.2,29-22.2,38.7-30.5c4.3-1.1,12-4,15.3-5.6c21.1-7.3,20.8-37.5-4.4-21.3
		C238.5,114.3,236.9,103.1,232.4,103.6z"/>
	<path class="st5" d="M244.2,137.2c-1.3-2.6-3.3-1.6-4.7-1.2c-6.3,1.8-4.9,8.9,2.6,5.8C243.4,141.2,245.3,139.5,244.2,137.2z"/>
	<path class="st5" d="M243.6,131.6c-1.3-2.6-3.3-1.6-4.7-1.2c-6.3,1.8-4.9,8.9,2.6,5.8C242.8,135.6,244.7,133.9,243.6,131.6z"/>
	<path class="st5" d="M242.7,125.4c-1.3-2.6-3.3-1.6-4.7-1.2c-6.3,1.8-4.9,8.9,2.6,5.8C241.9,129.4,243.8,127.7,242.7,125.4z"/>
	<g>
		<path class="st0" d="M230.9,78.5l60.8-9.6l1.5,9.3L243.3,86l7.1,44.6l46.5-7.4l1.5,9.3l-46.5,7.4l8,50.1l51.3-8.1l1.5,9.3
			l-62.3,9.9L230.9,78.5z"/>
	</g>
	<path class="st6" d="M252.4,113.6c-1.2-3.2-3.9-1.8-5.5-1.3c-7.3,2.3-5.5,10.5,3.1,6.7C251.6,118.3,253.7,116.9,252.4,113.6z"/>
	<g class="st2">
		<path class="st0" d="M256.4,16.9h11c12.8,0,14.4,9.2,14.4,20.6c0,10.4-2.6,20.6-13.9,20.6h-11.6V16.9z M261.4,54h5.3
			c8.8,0,9.8-9,9.8-16.4c0-8-0.5-16.5-9.8-16.5h-5.3V54z"/>
		<path class="st0" d="M289.9,16.9h21.3v4.5H295v12.9h15.3v4.5H295v14.8h16.9v4.5h-22V16.9z"/>
	</g>
	<g>
		<g>
			<g>
				<path class="st3" d="M352.5,59.1c0,0,5.2-0.7,14.9-2.1c9.7-1.3,24-3.1,42.3-4.9c36.5-3.7,88.8-7.3,151.7-7.8
					c31.5-0.3,65.6,0.3,101.6,2c36,1.8,74,4.8,113.1,9.9c19.5,2.6,39.3,5.7,59.3,9.6c19.9,3.9,40,8.6,59.8,14.9
					c9.9,3.2,19.8,6.7,29.4,11.1c4.8,2.2,9.6,4.6,14.2,7.3c4.6,2.7,9.1,5.8,13.2,9.5c1,0.9,2,1.9,3,2.9c0.9,1.1,1.9,2.1,2.7,3.2
					c0.9,1.1,1.7,2.3,2.4,3.6l1,1.9c0.4,0.6,0.6,1.4,0.9,2c1.1,2.8,1.7,5.8,1.7,8.9c0,3.1-0.8,6.1-1.9,8.8
					c-2.4,5.5-6.2,9.9-10.3,13.5c-4.1,3.7-8.6,6.8-13.3,9.6c-9.3,5.5-19.1,9.8-29,13.6s-20,7-30.2,9.9c-20.3,5.8-40.8,10.2-61.2,14
					c-40.9,7.5-81.6,12.2-121,15.4c-39.5,3.2-77.7,4.8-114.1,5.3c-36.3,0.4-70.6,0.2-102.4-0.4c-31.8-0.6-60.9-1.8-86.9-3.4
					c-25.9-1.6-48.6-3.7-67.3-6c-4.7-0.6-9.1-1.2-13.3-1.7c-4.2-0.6-8.1-1.2-11.8-1.8c-1.8-0.3-3.6-0.5-5.3-0.8
					c-1.7-0.3-3.3-0.6-4.9-0.9c-3.1-0.5-6-1-8.5-1.5c-2.6-0.4-4.8-0.9-6.8-1.3c-2-0.4-3.7-0.8-5-1c-2.8-0.6-4.3-0.9-4.6-1
					c-8.4-2-14.4-6.7-13.4-10.3s8.3-4.9,16.4-2.9c0.3,0.1,1.8,0.4,4.4,1c1.3,0.3,3,0.6,4.9,1.1c1.9,0.4,4.1,0.9,6.6,1.4
					s5.3,1,8.3,1.5c1.5,0.3,3.1,0.6,4.8,0.9c1.7,0.3,3.4,0.5,5.2,0.8c3.6,0.6,7.4,1.2,11.5,1.8s8.5,1.2,13.1,1.8
					c18.4,2.4,40.8,4.7,66.5,6.6c25.7,1.9,54.7,3.3,86.3,4.3c31.6,0.9,65.9,1.4,102,1.4c36.1-0.1,74.2-1.3,113.5-4.1
					c39.2-2.8,79.7-7.1,120.3-14.1c20.3-3.5,40.6-7.8,60.7-13.2c10-2.7,19.9-5.8,29.7-9.4c9.7-3.6,19.3-7.7,28.1-12.8
					c4.4-2.6,8.6-5.4,12.3-8.7c3.7-3.2,7-7,8.8-11.1c1.9-4.1,2-8.7,0.3-12.9c-0.2-0.5-0.4-1.1-0.7-1.6l-0.8-1.5c-0.6-1-1.2-2-2-2.9
					c-0.7-1-1.5-1.9-2.3-2.8c-0.9-0.9-1.7-1.8-2.6-2.6c-3.6-3.3-7.8-6.3-12.1-8.9s-8.9-5-13.5-7.2c-9.3-4.3-18.9-7.9-28.6-11.2
					c-19.5-6.4-39.4-11.3-59.1-15.4c-19.8-4.1-39.5-7.4-58.9-10.1c-38.9-5.5-76.7-8.9-112.7-11c-35.9-2.1-70-3-101.4-3.1
					c-62.9-0.1-115.2,3-151.7,6.3c-18.3,1.6-32.6,3.2-42.3,4.4C357.7,58.4,352.5,59.1,352.5,59.1z"/>
			</g>
		</g>
	</g>
	<path class="st3" d="M248.4,193.3v24.9c0,1.7,1.4,3,3,3c1.7,0,3-1.4,3-3V202c0-0.9,0.8-1.7,1.7-1.7c0.9,0,1.7,0.8,1.7,1.7v7.9
		c0,1.7,1.4,3,3,3c1.7,0,3-1.4,3-3v-3.8c0-1,0.8-1.7,1.7-1.7c1,0,1.7,0.8,1.7,1.7v9.7c0,1,0.9,1.9,1.9,1.9s1.9-0.9,1.9-1.9v-11.1
		v-11.3L248.4,193.3L248.4,193.3z"/>
	<path class="st7" d="M119,175.5c0.1,11.8,6.4,39.5,13.7,36.6c16.1-6.5,38.1-20.1,38.1-20.1c6.8-0.9,9.2-51.5-9.2-42.9l-15.2,7.7
		C146.4,156.8,118.9,164.3,119,175.5z"/>
	<path class="st4" d="M214.3,159.1c9.3-6.2,4.5-3.3,8.8-6.6s12.7,1.4-1.6,12.5C217.8,168,205.2,165.2,214.3,159.1z"/>
	<g>
		<path class="st8" d="M250.8,194.4c-2.4-0.7-4-1.8-5.1-3.1c-3.8-4.4-2.4-11.4-5.5-16.7c0,0,0.5-0.5,3.1-1c3.5-0.8,6.1,0.8,8,3.4
			c1.2,1.7,2.1,3.8,2.8,6.1c1,3.4,4.3-4.7,4.3-4.7C266.8,187.3,261,197.4,250.8,194.4z"/>
		<path class="st9" d="M252.8,181.5c1.2,1,1.9,3,0.6,4.3c-1.2,1.3-1.9-0.9-2.2-2.2c-0.3-1.2-2-5.4-4-3.5s0.7,4,3.3,6.6
			c2.6,2.7-0.1,2.9-1,2.4s-0.4-3.1-3.6-5c-3.2-1.9-0.4,3.6,0.9,4.5c1.3,0.9,2.7,3.6-0.3,1.9c-1.3-0.7-1.4-0.2-0.8,0.8
			c-3.8-4.4-2.4-11.4-5.5-16.7c0,0,0.5-0.5,3.1-1c3.5-0.8,6.1,0.8,8,3.4c-0.2,0.1-0.5,0.3-0.8,0.5
			C249.3,178.4,251.6,180.5,252.8,181.5z"/>
		<path class="st3" d="M258.3,178.4c8.5,8.9,2.6,19-7.6,16c-2.4-0.7-4-1.8-5.1-3.1c-0.5-1-0.5-1.5,0.8-0.8c3,1.7,1.6-1,0.3-1.9
			s-4.2-6.4-0.9-4.5c3.2,1.9,2.7,4.5,3.6,5c0.9,0.5,3.6,0.3,1-2.4s-5.2-4.7-3.3-6.6c2-1.9,3.7,2.3,4,3.5s1,3.5,2.2,2.2
			s0.6-3.3-0.6-4.3c-1.2-1-3.5-3.1-2.4-4c0.3-0.2,0.5-0.4,0.8-0.5c1.2,1.7,2.1,3.8,2.8,6.1C255.1,186.6,258.3,178.4,258.3,178.4z"/>
		<path class="st10" d="M242,170.7c0.1,0.1-0.7,0.8-1.7,1.6s-1.9,1.3-2,1.2l-25.8-33.3c-0.1-0.1,0.7-0.8,1.7-1.6s1.9-1.3,2-1.2
			L242,170.7z"/>
		<path class="st11" d="M243.8,173.1c0.2,0.2-0.5,1.1-1.5,1.9c-1,0.8-2,1.2-2.2,1l-2.9-3.7c-0.2-0.2,0.5-1.1,1.5-1.9
			c1-0.8,2-1.2,2.2-1L243.8,173.1z"/>
	</g>
	<path class="st4" d="M247.1,159.1c-5.5-0.1-17.3-0.5-28.4-1.4c-10.9-0.9-6.7,10.1-10.8,16.2c0,0-2.6,3.2-5.1,6.2
		c-0.9,0.8-1.8,1.5-2.8,2.3c-7,5.8-14.9,10.7-23.3,14.8c-20.8,10-14.4,46.9,12.5,26.4c19.8-15.1,25.7-24.4,33.3-34.7
		c3.9-2.1,10-2.5,12.9-4.8c3.1-2.5-0.4-16.4,2.7-16.2C256.1,169.2,252.6,159.1,247.1,159.1z"/>
	<path class="st4" d="M93.6,182.4c3.8-8.4,7.5-24.9,2.9-32.5c-4.7-7.6,1.9-13.7,9.3-7.9s24.1,3,26.3,12.4c11,47-10.3,40.5-19.6,40
		S93.6,182.4,93.6,182.4z"/>
	<path class="st4" d="M72.3,124.9c2.6,11.7,34.7,39.3,66.5,37.3c18.8-1.2,26.8-21.8,31.3-36.6c2.5-8.3,15.6-74.3-47.9-73.1
		C50.6,54,66.9,100.3,72.3,124.9z"/>
	<path d="M122.7,141.9c3.3,1.8,19,9.3,31.5-1c-6,5.3-5.8,12.5-15.8,12.3C128.3,153,130,146.2,122.7,141.9z"/>
	<g>
		<g>
			<g>
				<g>
					<path id="SVGID_1_" class="st1" d="M143.3,118.4c1-15.9,15.3-19.3,22.2-16c0,0,7,7.7,3,21.8C168.6,124.2,158.3,118,143.3,118.4
						z"/>
				</g>
				<g>
					<defs>
						<path id="SVGID_2_" d="M143.3,118.4c1-15.9,15.3-19.3,22.2-16c0,0,7,7.7,3,21.8C168.6,124.2,158.3,118,143.3,118.4z"/>
					</defs>
					<clipPath id="SVGID_3_">
						<use xlink:href="#SVGID_2_"  style="overflow:visible;"/>
					</clipPath>
					<g class="st12">
						
							<ellipse transform="matrix(0.1897 -0.9818 0.9818 0.1897 8.1635 245.7922)" class="st0" cx="153" cy="118" rx="11.4" ry="11.1"/>
						<ellipse transform="matrix(0.1897 -0.9818 0.9818 0.1897 8.1635 245.7922)" cx="153" cy="118" rx="7.8" ry="7.6"/>
						<g>
							
								<ellipse transform="matrix(0.1897 -0.9818 0.9818 0.1897 12.2886 235.5138)" class="st1" cx="148.8" cy="110.3" rx="3.6" ry="3.5"/>
							
								<ellipse transform="matrix(0.1897 -0.9818 0.9818 0.1897 16.5117 241.7041)" class="st1" cx="154.7" cy="110.8" rx="1.8" ry="1.8"/>
							
								<ellipse transform="matrix(0.1897 -0.9818 0.9818 0.1897 11.4413 242.4435)" class="st1" cx="152.6" cy="114.3" rx="1" ry="1"/>
						</g>
					</g>
				</g>
			</g>
			<g>
				<g>
					<g>
						<path d="M165.6,102.4c0.1-0.1,0.3,0,1,0.7s1.9,2.1,2.9,5.1s1.1,7,0.6,10.1s-1.3,5.3-1.3,5.3s0.6-2.2,0.8-5.3
							c0.3-3.1,0-6.9-0.9-9.8s-2-4.2-2.6-5C165.5,102.7,165.5,102.5,165.6,102.4z"/>
					</g>
				</g>
			</g>
		</g>
		<g>
			<g>
				<g>
					<path d="M167.5,102.8c0,0.1-0.6,0-3.2-0.7c-0.7-0.1-1.4-0.3-2.4-0.4c-0.5,0-1,0-1.5-0.1c-0.3,0-0.6,0-0.9,0
						c-0.3,0-0.6,0.1-0.9,0.1c-2.5,0.2-5.8,1.1-9,3.9c-1.6,1.4-3,3.2-4,5.2c-1.1,2-1.8,4.3-1.8,6.7c0,0.4,0,0.4,0,0.4h0.6
						c0.6,0,1.2,0,1.8,0c1.2,0,2.4,0.2,3.6,0.3c2.3,0.3,4.6,0.7,6.7,1.2c4.2,1,7.7,2.4,10.1,3.6c1.2,0.6,2.1,1.1,2.7,1.5
						c0.6,0.4,0.9,0.7,0.9,0.7s-0.3-0.2-0.9-0.6c-0.6-0.4-1.6-0.9-2.8-1.5c-2.4-1.1-6-2.4-10.1-3.3c-2.1-0.5-4.3-0.8-6.6-1.1
						c-1.2-0.1-2.3-0.2-3.5-0.2c-0.6,0-1.2,0-1.8,0h-1.2h-0.2c-0.1,0,0-0.1,0-0.2v-0.4v-0.6c0-2.5,0.7-4.9,1.8-7.1
						c1.1-2.1,2.5-4,4.2-5.5c3.3-2.9,6.9-3.9,9.5-4.1c0.3,0,0.7-0.1,1-0.1s0.6,0,0.9,0c0.6,0,1.1,0.1,1.6,0.1c1,0.2,1.8,0.4,2.4,0.5
						C167,102.4,167.5,102.8,167.5,102.8z"/>
				</g>
			</g>
		</g>
		<g>
			<g>
				<path class="st1" d="M139.4,118.9c-3.5-16-23.4-17.6-32.4-13.4c0,0-8.6,8.7-1.2,22.5C105.8,128,118.9,120.4,139.4,118.9z"/>
				<g>
					<g>
						<defs>
							<path id="SVGID_4_" d="M137.8,111c-7.7-14-27.6-9.9-34.9-3.2c0,0-6.7,10.4,5.5,21.9C108.4,129.6,118.6,119.1,137.8,111z"/>
						</defs>
						<clipPath id="SVGID_5_">
							<use xlink:href="#SVGID_4_"  style="overflow:visible;"/>
						</clipPath>
						
							<ellipse transform="matrix(0.9554 -0.2952 0.2952 0.9554 -30.4468 38.5599)" class="st13" cx="112.5" cy="120.1" rx="11.1" ry="11.4"/>
					</g>
					<g>
						<defs>
							<path id="SVGID_6_" d="M137.8,111c-7.7-14-27.6-9.9-34.9-3.2c0,0-6.7,10.4,5.5,21.9C108.4,129.6,118.6,119.1,137.8,111z"/>
						</defs>
						<clipPath id="SVGID_7_">
							<use xlink:href="#SVGID_6_"  style="overflow:visible;"/>
						</clipPath>
						
							<ellipse transform="matrix(0.9554 -0.2952 0.2952 0.9554 -30.4468 38.5599)" class="st14" cx="112.5" cy="120.1" rx="7.6" ry="7.8"/>
					</g>
					<g>
						<defs>
							<path id="SVGID_8_" d="M139.4,118.9c-3.2-15.6-23.4-17.6-32.4-13.4c0,0-9.5,7.9-1.2,22.5C105.8,128,118.7,120.9,139.4,118.9z
								"/>
						</defs>
						<clipPath id="SVGID_9_">
							<use xlink:href="#SVGID_8_"  style="overflow:visible;"/>
						</clipPath>
						<g class="st15">
							
								<ellipse transform="matrix(0.9554 -0.2952 0.2952 0.9554 -27.9075 39.1723)" class="st1" cx="115.8" cy="112" rx="3.5" ry="3.6"/>
							
								<ellipse transform="matrix(0.9554 -0.2952 0.2952 0.9554 -28.5394 37.553)" class="st1" cx="110.1" cy="113.3" rx="1.8" ry="1.8"/>
							
								<ellipse transform="matrix(0.9554 -0.2952 0.2952 0.9554 -29.3517 38.3946)" class="st1" cx="112.5" cy="116.4" rx="1" ry="1"/>
						</g>
					</g>
				</g>
				<g>
					<g>
						<g>
							<path d="M107,105.5c0.1,0.1,0,0.3-0.6,1.1c-0.1,0.2-0.4,0.4-0.6,0.7c-0.2,0.3-0.4,0.6-0.7,1.1c-0.5,0.8-1.1,1.9-1.6,3.4
								c-0.4,1.5-0.7,3.3-0.7,5.1c0,1.8,0.3,3.6,0.7,5.2c0.4,1.6,0.9,2.9,1.2,3.9c0.4,0.9,0.7,1.5,0.7,1.5s-0.3-0.5-0.8-1.4
								s-1.1-2.2-1.6-3.8c-0.5-1.6-0.9-3.4-1-5.3s0.1-3.8,0.6-5.4s1.2-2.8,1.8-3.6c0.3-0.4,0.6-0.8,0.8-1.1c0.2-0.3,0.5-0.5,0.7-0.7
								C106.7,105.5,106.9,105.4,107,105.5z"/>
						</g>
					</g>
				</g>
			</g>
			<g>
				<g>
					<g>
						<path d="M104.4,106.2c0-0.1,0.6-0.5,3.8-1.7c0.8-0.2,1.9-0.5,3.1-0.8c0.6-0.1,1.3-0.2,2-0.3c0.7-0.1,1.5-0.3,2.4-0.2
							c3.4-0.2,7.9,0.1,13.1,2.4c2.5,1.2,5.1,2.9,7.1,5.2l0.8,0.9c0.3,0.3,0.5,0.6,0.7,1c0.2,0.3,0.5,0.6,0.7,1l0.5,1.1
							c0.4,0.7,0.6,1.5,0.9,2.2c0.1,0.4,0.1,0.8,0.2,1.2l0.1,0.9c0.2,0.5-0.4,0.3-0.7,0.4l-2.4,0.2c-0.8,0.1-1.5,0.2-2.3,0.3
							c-1.5,0.2-3,0.4-4.5,0.7c-3,0.5-5.8,1.2-8.5,1.9c-5.3,1.4-9.8,3.1-13,4.5c-1.6,0.7-2.8,1.4-3.6,1.8c-0.8,0.5-1.2,0.8-1.2,0.8
							s0.4-0.3,1.2-0.8c0.8-0.5,2-1.2,3.6-1.9c3.1-1.5,7.6-3.3,12.9-4.9c2.6-0.8,5.5-1.5,8.5-2.1c1.5-0.3,3-0.5,4.5-0.8
							c0.8-0.1,1.5-0.2,2.3-0.3l2.2-0.2c0,0,0.1,0,0,0v-0.1v-0.2c-0.1-0.4-0.1-0.7-0.2-1.1c-0.3-0.7-0.4-1.4-0.8-2.1l-0.5-1
							c-0.2-0.3-0.4-0.6-0.6-0.9c-0.2-0.3-0.4-0.6-0.7-0.9l-0.7-0.8c-2-2.2-4.4-3.8-6.9-4.9c-4.9-2.2-9.3-2.6-12.6-2.4
							c-0.8,0-1.6,0.1-2.3,0.2c-0.7,0.1-1.4,0.1-2,0.2c-1.2,0.3-2.2,0.5-3,0.7C105.2,106.2,104.5,106.4,104.4,106.2z"/>
					</g>
				</g>
			</g>
		</g>
	</g>
	<path d="M134.4,135.1c7.5-3,8.3-4.3,12.4-1.7C150.9,135.9,134.4,135.1,134.4,135.1z"/>
	<path d="M137.2,154.9c2.6,1.3,3.7-0.1,4.9,0.5c0.8-0.1-0.6,1.3-2.1,1.1C138.6,156.6,137,155,137.2,154.9z"/>
	<path class="st7" d="M89,249.2c1.1-15.2-3.2-46.2-3.1-57.4C86,180,87,165.3,98.6,162.3c-1.4,7.6,5.8,5.5,13.2,3.1
		c5.7-3.3,24.9,1.3,32.1,4.2c16.1,6.5,38.1,20.1,38.1,20.1c6.8,0.9,9.2,51.5-9.2,42.9l-15.2-7.7l5.2,20.2
		C162.9,245.1,129.4,260.5,89,249.2z"/>
	<g>
		<g>
			<g>
				<path d="M155.9,223.2c-0.1,0.2-0.4,0.4-1.7,0.1c-0.3-0.1-0.7-0.2-1.2-0.3s-1-0.3-1.6-0.5s-1.3-0.5-2.1-0.9
					c-0.8-0.3-1.7-0.8-2.6-1.3c-1.9-1.1-3.9-2.5-5.7-4.2s-3.3-3.6-4.4-5.5c-1.1-1.8-1.8-3.6-2.2-4.9c-0.2-0.6-0.3-1.2-0.4-1.5
					c-0.1-0.4-0.1-0.6-0.1-0.6s0.1,0.2,0.2,0.5c0.1,0.3,0.3,0.8,0.6,1.4c0.5,1.2,1.4,2.8,2.7,4.5s2.9,3.4,4.7,4.9s3.8,2.7,5.6,3.8
					c0.9,0.5,1.7,1,2.5,1.3c0.7,0.4,1.4,0.7,2,0.9c0.6,0.3,1.1,0.5,1.5,0.7s0.8,0.3,1.1,0.5C155.7,222.7,155.9,223,155.9,223.2z"/>
			</g>
		</g>
	</g>
	<g>
		<g>
			<g>
				<path d="M141.6,168.8c-0.1,0.2-0.3,0.3-1.3,0.1c-0.5-0.1-1.2-0.2-2.2-0.4c-0.5-0.1-1-0.2-1.7-0.3c-0.6-0.1-1.3-0.2-2.1-0.2
					c-1.6-0.1-3.4-0.1-5.2,0.1c-1.8,0.2-3.6,0.6-5.1,1.1s-2.8,1.2-3.7,1.7c-0.4,0.3-0.8,0.5-1,0.7s-0.3,0.3-0.3,0.3s0.1-0.1,0.3-0.3
					c0.2-0.2,0.5-0.5,0.9-0.8c0.8-0.7,2-1.5,3.5-2.2s3.3-1.3,5.2-1.6s3.8-0.4,5.5-0.3c0.8,0.1,1.6,0.1,2.2,0.3
					c0.7,0.1,1.2,0.2,1.7,0.3c1,0.2,1.7,0.5,2.2,0.7C141.5,168.4,141.6,168.6,141.6,168.8z"/>
			</g>
		</g>
	</g>
	<g>
		<g>
			<g>
				<path d="M155,225.9c0.1,0.2,0,0.4-0.9,1c-0.4,0.3-1,0.7-1.8,1.2c-0.4,0.3-0.9,0.6-1.4,1s-1.1,0.8-1.7,1.3
					c-1.2,1-2.5,2.3-3.7,3.7c-1.1,1.4-2.1,2.9-2.8,4.4c-0.7,1.4-1.1,2.8-1.4,3.8c-0.1,0.5-0.2,0.9-0.2,1.2s-0.1,0.4-0.1,0.4
					s0-0.2,0-0.4c0-0.3,0-0.7,0.1-1.2c0.1-1,0.4-2.5,1-4c0.6-1.6,1.5-3.2,2.6-4.8c1.1-1.5,2.4-2.9,3.7-4c0.6-0.5,1.2-1,1.8-1.4
					c0.5-0.4,1-0.7,1.5-1c0.9-0.5,1.5-0.9,2-1C154.6,225.7,154.9,225.7,155,225.9z"/>
			</g>
		</g>
	</g>
	<g>
		<g>
			<g>
				<path d="M153.4,225.2c0,0.1-0.2,0.2-1,0.2c-0.8-0.1-2.2-0.3-4.6-0.3c-1.2,0-2.6,0.1-4,0.4c-1.4,0.3-2.7,0.7-3.8,1.2
					s-2.1,1.1-2.7,1.6c-0.3,0.2-0.5,0.4-0.7,0.6c-0.2,0.1-0.2,0.2-0.2,0.2s0.1-0.1,0.2-0.3c0.1-0.2,0.3-0.4,0.6-0.7
					c0.6-0.6,1.4-1.3,2.5-1.9c1.1-0.6,2.5-1.2,3.9-1.6c1.4-0.4,2.9-0.5,4.2-0.6c1.3,0,2.3,0.1,3.1,0.2c0.8,0.1,1.3,0.2,1.7,0.4
					C153.3,224.9,153.4,225.1,153.4,225.2z"/>
			</g>
		</g>
	</g>
	<g>
		<path class="st16" d="M112.8,57.6c7.7,0,21.5,4.4,29.9-22.9c0,0-1.1,1.3-3,1.9c0,0,6.4-13.8-7.2-27.2c0,0-0.5,0.7-0.4,2.7
			c0,0-19.1-17.6-38.3-4.4s-21.6,28-15,38.8c0,0,0.6-3.8,3.5-4.8c0,0-0.3,8.4,4.1,16.4c0,0,1.3-9.3,6.4-11.8
			C92.9,46.4,96.6,57.7,112.8,57.6z"/>
		<g>
			<g>
				<g>
					<path d="M93.8,47.8c-0.2,0.1-0.4,0-0.9-0.9c-0.3-0.4-0.6-1.1-0.9-2c-0.2-0.4-0.4-1-0.6-1.6S91,42,90.9,41.2
						c-0.3-1.6-0.5-3.4-0.5-5.2c0.1-1.8,0.4-3.6,0.8-5.1c0.5-1.5,1.1-2.8,1.6-3.6c0.3-0.4,0.5-0.7,0.7-1c0.2-0.2,0.3-0.3,0.3-0.3
						s-0.1,0.1-0.2,0.4c-0.1,0.2-0.3,0.6-0.5,1c-0.4,0.9-0.9,2.2-1.2,3.7c-0.3,1.5-0.4,3.2-0.4,5c0.1,1.7,0.3,3.4,0.6,4.9
						c0.2,0.7,0.3,1.4,0.5,2s0.3,1.1,0.5,1.5c0.3,0.9,0.5,1.5,0.7,2C94,47.5,93.9,47.8,93.8,47.8z"/>
				</g>
			</g>
		</g>
		<path class="st17" d="M127.7,62.8c0.5-3.8,2.3-10.7-8.8-11.1S108.5,54,108.5,60C108.5,60,117.3,56.3,127.7,62.8z"/>
	</g>
	<path class="st16" d="M89.6,145.1c-13.5-11.7-13.5-37.4-7-44.7c0,0,3.9,4,9.1,17.4c0,0-2.5-25.6,2.9-29c0,0,19.6,1.3,19.4,16.1
		c0,0,14.4-5.6,19.8-26.4c0,0,14.2,1.4,15.8,27.1c0,0,13.9-14.5,7-31.5c0,0,16.2,5,16.5,29.6c0,0,5.6-24.8-6.3-39.7l3.1,1
		c0,0-14.5-26.4-37.1-26.9c0,0,0.7-2.1,4.5-2.1c0,0-5.7-1.7-14.1,1.1s-4.1-5.1-22.4,3.4S60.9,63,63.3,103.1
		C64.4,120.8,72.2,132.2,89.6,145.1z"/>
	<g>
		<path class="st18" d="M87.8,123.1c-2.4,3-14.5,5-16.8-9.5c-1.9-12.4,7.1-13.7,11.4-11.8"/>
		<g>
			<g>
				<path d="M82.4,101.9c0,0.1-0.2,0.1-0.5,0.1s-0.9-0.1-1.8-0.2s-2.2-0.1-3.9,0.5c-0.8,0.3-1.7,0.8-2.5,1.5s-1.4,1.9-1.8,3.2
					c-0.8,2.8-0.5,6.3,0.4,9.5c0.3,0.8,0.5,1.6,0.9,2.3c0.2,0.4,0.3,0.8,0.5,1.1c0.2,0.3,0.5,0.7,0.7,1c1,1.3,2.1,2.4,3.5,3
					c1.3,0.6,2.7,1,4,1s2.4-0.1,3.3-0.4c0.5-0.1,0.8-0.3,1.2-0.5c0.3-0.2,0.6-0.4,0.8-0.5c0.4-0.4,0.6-0.5,0.6-0.5s-0.2,0.2-0.6,0.6
					c-0.2,0.2-0.5,0.4-0.8,0.6s-0.7,0.4-1.2,0.6c-0.9,0.4-2.1,0.6-3.4,0.7c-1.3,0-2.8-0.2-4.3-0.8c-1.5-0.6-2.8-1.7-4-3.1
					c-0.3-0.4-0.5-0.7-0.8-1.1c-0.2-0.4-0.4-0.8-0.6-1.2c-0.5-0.8-0.7-1.6-1-2.5c-1-3.4-1.5-7-0.6-10.3c0.5-1.6,1.2-3,2.2-3.9
					s2.1-1.5,3-1.8c2-0.6,3.4-0.4,4.4-0.2c1,0.2,1.6,0.5,1.9,0.7C82.4,101.7,82.4,101.8,82.4,101.9z"/>
			</g>
		</g>
	</g>
	<g>
		<g>
			<g>
				<path d="M84.8,118c0.1,0.1,0.1,0.2,0,0.4c-0.1,0.2-0.4,0.5-0.9,0.7c-0.6,0.3-1.5,0.5-2.7,0.1c-1.1-0.4-2.5-1.3-3.4-3.1
					c-0.4-0.9-0.7-1.8-0.6-2.9c0-1,0.5-2.1,1.3-2.7c0.7-0.6,1.5-0.9,2.1-1c0.1,0,0.3-0.1,0.4-0.1s0.1,0,0.2,0s0.2,0,0.3,0
					c0.1,0,0-0.2-0.1-0.2c0-0.1-0.1-0.1-0.2-0.3c-0.1-0.1-0.2-0.3-0.3-0.4c-0.1-0.1-0.2-0.2-0.3-0.3c-0.5-0.4-1-0.7-1.5-0.8
					c-1-0.3-1.9-0.2-2.6-0.1c-1.4,0.4-1.7,1.1-1.7,1.1s0.1-0.2,0.3-0.4c0.2-0.3,0.7-0.6,1.3-0.9c0.7-0.2,1.6-0.4,2.8-0.1
					c0.6,0.1,1.2,0.4,1.7,0.8c0.2,0.1,0.3,0.2,0.4,0.4c0.1,0.1,0.3,0.3,0.4,0.4c0.1,0.2,0.3,0.4,0.4,0.7c0.1,0.2,0.3,0.5,0.3,0.7
					c-0.1,0-0.4,0.1-0.7,0.1c-0.2,0-0.3,0.1-0.5,0.1c-0.1,0-0.2,0.1-0.4,0.1c-0.5,0.2-1.1,0.5-1.6,1s-0.8,1.2-0.8,1.9
					c0,0.8,0.3,1.6,0.6,2.3c0.7,1.4,1.7,2.2,2.5,2.5c0.9,0.3,1.5,0.3,2,0.2c0.5-0.1,0.7-0.2,0.9-0.3C84.6,117.9,84.7,117.9,84.8,118
					z"/>
			</g>
		</g>
	</g>
	<path class="st19" d="M70.8,70.2c3.6,2.8,9.6,8.9,16.9-2.3c7.2-11.2,3.9-12.1-2.3-15.8C85.3,52.1,83.8,63.4,70.8,70.2z"/>
	<g>
		<path class="st16" d="M79.6,65.7c4.9-7.8,18.3-18.9-3.9-45c0,0,0.6,1.9,0,4.3c0,0-9.8-15.4-32.2-10.2c0,0,0.4,1,2.5,2.1
			c0,0-30.1,8-29,36s16.5,38.3,31.7,38.5c0,0-2.3-2-4.6-5.1c0,0,7.2,4.5,16.7,0.1c0,0-6-1-5.2-7.7C55.5,78.6,69.3,82.1,79.6,65.7z"
			/>
		<g>
			<g>
				<g>
					<path d="M57.4,78.6c0,0.2-0.3,0.4-1.5,0.3c-0.3,0-0.7,0-1.1-0.1c-0.4-0.1-0.9-0.2-1.5-0.2c-0.6-0.1-1.2-0.3-2-0.5
						c-0.7-0.2-1.6-0.5-2.5-0.8c-1.8-0.7-3.8-1.6-5.6-2.9c-1.8-1.2-3.4-2.7-4.6-4.1c-1.2-1.5-2.1-2.9-2.6-4c-0.3-0.5-0.4-1-0.5-1.3
						s-0.2-0.5-0.2-0.5s0.1,0.2,0.2,0.4c0.1,0.3,0.4,0.7,0.7,1.2c0.6,1,1.6,2.3,3,3.5c1.3,1.3,3,2.5,4.8,3.6s3.7,1.9,5.4,2.5
						c0.9,0.3,1.6,0.6,2.3,0.8c0.7,0.2,1.3,0.4,1.9,0.5c0.5,0.1,1,0.3,1.4,0.4s0.7,0.2,1,0.3C57.3,78.1,57.5,78.4,57.4,78.6z"/>
				</g>
			</g>
		</g>
	</g>
</g>
</svg>
